<mxfile host="app.diagrams.net" modified="2023-08-10T01:46:16.801Z" agent="Mozilla/5.0 (Windows NT 10.0; Win64; x64) AppleWebKit/537.36 (KHTML, like Gecko) Chrome/114.0.0.0 Safari/537.36 OPR/100.0.0.0" etag="CwQFKOz7euziQiqwJG8y" version="21.6.7" type="device">
  <diagram name="PÃ¡gina-1" id="W7R_Ep_yQURHgV2pp0XZ">
    <mxGraphModel dx="1094" dy="488" grid="1" gridSize="10" guides="1" tooltips="1" connect="1" arrows="1" fold="1" page="1" pageScale="1" pageWidth="827" pageHeight="1169" math="0" shadow="0">
      <root>
        <mxCell id="0" />
        <mxCell id="1" parent="0" />
        <mxCell id="V6tVSzaB6_fu04YDmf7T-2" value="C++: Guarda en archivo &quot;texto_a_analizar.txt&quot;&amp;nbsp;" style="rounded=1;whiteSpace=wrap;html=1;fillColor=#dae8fc;strokeColor=#6c8ebf;fontFamily=Times New Roman;fontSize=18;fontStyle=1" vertex="1" parent="1">
          <mxGeometry x="320" y="80" width="226" height="60" as="geometry" />
        </mxCell>
        <mxCell id="V6tVSzaB6_fu04YDmf7T-4" value="Python: Hace consulta a IBM NLU" style="rounded=1;whiteSpace=wrap;html=1;fillColor=#dae8fc;strokeColor=#6c8ebf;fontFamily=Times New Roman;fontSize=18;fontStyle=1" vertex="1" parent="1">
          <mxGeometry x="333" y="260" width="200" height="60" as="geometry" />
        </mxCell>
        <mxCell id="V6tVSzaB6_fu04YDmf7T-5" value="C++: Llama al codigo python" style="rounded=1;whiteSpace=wrap;html=1;fillColor=#dae8fc;strokeColor=#6c8ebf;fontFamily=Times New Roman;fontSize=18;fontStyle=1" vertex="1" parent="1">
          <mxGeometry x="630" y="80" width="170" height="60" as="geometry" />
        </mxCell>
        <mxCell id="V6tVSzaB6_fu04YDmf7T-6" value="Python: Guarda resultado en archivo &quot;sentimiento.txt&quot;" style="rounded=1;whiteSpace=wrap;html=1;fillColor=#dae8fc;strokeColor=#6c8ebf;fontFamily=Times New Roman;fontSize=18;fontStyle=1" vertex="1" parent="1">
          <mxGeometry x="620" y="260" width="230" height="60" as="geometry" />
        </mxCell>
        <mxCell id="V6tVSzaB6_fu04YDmf7T-7" value="C++: Lee resultado de archivo &quot;sentimiento.txt&quot;" style="rounded=1;whiteSpace=wrap;html=1;fillColor=#dae8fc;strokeColor=#6c8ebf;fontFamily=Times New Roman;fontSize=18;fontStyle=1" vertex="1" parent="1">
          <mxGeometry x="40" y="430" width="200" height="60" as="geometry" />
        </mxCell>
        <mxCell id="V6tVSzaB6_fu04YDmf7T-8" value="C++: Muestra una carita de acorde al resultado" style="rounded=1;whiteSpace=wrap;html=1;fillColor=#dae8fc;strokeColor=#6c8ebf;fontFamily=Times New Roman;fontSize=18;fontStyle=1" vertex="1" parent="1">
          <mxGeometry x="320" y="430" width="200" height="60" as="geometry" />
        </mxCell>
        <mxCell id="V6tVSzaB6_fu04YDmf7T-10" value="Usuario: Ingresa texto" style="rounded=1;whiteSpace=wrap;html=1;fillColor=#dae8fc;strokeColor=#6c8ebf;fontFamily=Times New Roman;fontSize=18;fontStyle=1" vertex="1" parent="1">
          <mxGeometry x="40" y="80" width="200" height="60" as="geometry" />
        </mxCell>
        <mxCell id="V6tVSzaB6_fu04YDmf7T-12" value="" style="shape=flexArrow;endArrow=classic;html=1;rounded=0;" edge="1" parent="1">
          <mxGeometry width="50" height="50" relative="1" as="geometry">
            <mxPoint x="250" y="109.5" as="sourcePoint" />
            <mxPoint x="310" y="109.5" as="targetPoint" />
          </mxGeometry>
        </mxCell>
        <mxCell id="V6tVSzaB6_fu04YDmf7T-13" value="" style="shape=flexArrow;endArrow=classic;html=1;rounded=0;" edge="1" parent="1">
          <mxGeometry width="50" height="50" relative="1" as="geometry">
            <mxPoint x="560" y="109.5" as="sourcePoint" />
            <mxPoint x="620" y="109.5" as="targetPoint" />
          </mxGeometry>
        </mxCell>
        <mxCell id="V6tVSzaB6_fu04YDmf7T-14" value="" style="shape=flexArrow;endArrow=classic;html=1;rounded=0;" edge="1" parent="1">
          <mxGeometry width="50" height="50" relative="1" as="geometry">
            <mxPoint x="714.5" y="150" as="sourcePoint" />
            <mxPoint x="715" y="190" as="targetPoint" />
          </mxGeometry>
        </mxCell>
        <mxCell id="V6tVSzaB6_fu04YDmf7T-15" value="" style="shape=flexArrow;endArrow=classic;html=1;rounded=0;" edge="1" parent="1">
          <mxGeometry width="50" height="50" relative="1" as="geometry">
            <mxPoint x="720" y="200" as="sourcePoint" />
            <mxPoint x="160" y="200" as="targetPoint" />
          </mxGeometry>
        </mxCell>
        <mxCell id="V6tVSzaB6_fu04YDmf7T-16" value="" style="shape=flexArrow;endArrow=classic;html=1;rounded=0;" edge="1" parent="1">
          <mxGeometry width="50" height="50" relative="1" as="geometry">
            <mxPoint x="139.5" y="200" as="sourcePoint" />
            <mxPoint x="140" y="250" as="targetPoint" />
            <Array as="points">
              <mxPoint x="139.5" y="230" />
            </Array>
          </mxGeometry>
        </mxCell>
        <mxCell id="V6tVSzaB6_fu04YDmf7T-18" value="" style="shape=flexArrow;endArrow=classic;html=1;rounded=0;" edge="1" parent="1">
          <mxGeometry width="50" height="50" relative="1" as="geometry">
            <mxPoint x="250" y="289.5" as="sourcePoint" />
            <mxPoint x="310" y="289.5" as="targetPoint" />
          </mxGeometry>
        </mxCell>
        <mxCell id="V6tVSzaB6_fu04YDmf7T-19" value="" style="shape=flexArrow;endArrow=classic;html=1;rounded=0;" edge="1" parent="1">
          <mxGeometry width="50" height="50" relative="1" as="geometry">
            <mxPoint x="560" y="289.5" as="sourcePoint" />
            <mxPoint x="620" y="289.5" as="targetPoint" />
          </mxGeometry>
        </mxCell>
        <mxCell id="V6tVSzaB6_fu04YDmf7T-20" value="" style="shape=flexArrow;endArrow=classic;html=1;rounded=0;" edge="1" parent="1">
          <mxGeometry width="50" height="50" relative="1" as="geometry">
            <mxPoint x="735" y="330" as="sourcePoint" />
            <mxPoint x="735.5" y="370" as="targetPoint" />
          </mxGeometry>
        </mxCell>
        <mxCell id="V6tVSzaB6_fu04YDmf7T-21" value="" style="shape=flexArrow;endArrow=classic;html=1;rounded=0;" edge="1" parent="1">
          <mxGeometry width="50" height="50" relative="1" as="geometry">
            <mxPoint x="740.5" y="380" as="sourcePoint" />
            <mxPoint x="180.5" y="380" as="targetPoint" />
          </mxGeometry>
        </mxCell>
        <mxCell id="V6tVSzaB6_fu04YDmf7T-22" value="" style="shape=flexArrow;endArrow=classic;html=1;rounded=0;" edge="1" parent="1">
          <mxGeometry width="50" height="50" relative="1" as="geometry">
            <mxPoint x="160" y="380" as="sourcePoint" />
            <mxPoint x="160.5" y="430" as="targetPoint" />
            <Array as="points">
              <mxPoint x="160" y="410" />
            </Array>
          </mxGeometry>
        </mxCell>
        <mxCell id="V6tVSzaB6_fu04YDmf7T-23" value="Python: Lee archivo &quot;texto_a_analizar.txt&quot;" style="rounded=1;whiteSpace=wrap;html=1;fillColor=#dae8fc;strokeColor=#6c8ebf;fontFamily=Times New Roman;fontSize=18;fontStyle=1" vertex="1" parent="1">
          <mxGeometry x="40" y="260" width="200" height="60" as="geometry" />
        </mxCell>
        <mxCell id="V6tVSzaB6_fu04YDmf7T-24" value="" style="shape=flexArrow;endArrow=classic;html=1;rounded=0;" edge="1" parent="1">
          <mxGeometry width="50" height="50" relative="1" as="geometry">
            <mxPoint x="250" y="459.58000000000004" as="sourcePoint" />
            <mxPoint x="310" y="459.58000000000004" as="targetPoint" />
          </mxGeometry>
        </mxCell>
      </root>
    </mxGraphModel>
  </diagram>
</mxfile>
